<svg width="250" height="250" viewBox="0 0 250 250" fill="none" xmlns="http://www.w3.org/2000/svg">
<path d="M233.333 250H16.6667C7.5 250 0 242.5 0 233.333V16.6667C0 7.5 7.5 0 16.6667 0H233.333C242.5 0 250 7.5 250 16.6667V233.333C250 242.5 242.5 250 233.333 250Z" fill="url(#paint0_linear)"/>
<path d="M98.8453 190.308L42.2984 133.162C38.6134 129.439 38.6134 123.41 42.2984 119.695L55.6246 106.228C59.3096 102.504 65.2752 102.504 68.9508 106.228L105.508 143.172L189.188 58.6069C192.873 54.883 198.839 54.883 202.514 58.6069L215.841 72.0742C219.526 75.7981 219.526 81.827 215.841 85.5414L112.171 190.308C108.496 194.032 102.521 194.032 98.8452 190.308H98.8453Z" fill="url(#paint1_linear)"/>
<defs>
<linearGradient id="paint0_linear" x1="125" y1="0.841698" x2="125" y2="250.267" gradientUnits="userSpaceOnUse">
<stop stop-color="#5AB1B1"/>
<stop offset="1" stop-color="#154949"/>
</linearGradient>
<linearGradient id="paint1_linear" x1="39.537" y1="124.457" x2="218.602" y2="124.457" gradientUnits="userSpaceOnUse">
<stop offset="0.824" stop-color="white"/>
</linearGradient>
</defs>
</svg>
