<svg width="9" height="8" viewBox="0 0 9 8" fill="none" xmlns="http://www.w3.org/2000/svg">
<path fill-rule="evenodd" clip-rule="evenodd" d="M6.97016 0.970036C7.11011 0.831308 7.29903 0.753232 7.49609 0.752688C7.69315 0.752145 7.8825 0.829177 8.02321 0.967131C8.16393 1.10508 8.24469 1.29288 8.24805 1.4899C8.25141 1.68693 8.17709 1.87737 8.04116 2.02004L4.04916 7.01004C3.98055 7.08393 3.89774 7.14324 3.80569 7.1844C3.71364 7.22557 3.61423 7.24775 3.51341 7.24961C3.41259 7.25148 3.31243 7.233 3.21891 7.19527C3.1254 7.15754 3.04046 7.10134 2.96916 7.03004L0.324158 4.38404C0.250471 4.31537 0.191369 4.23257 0.150377 4.14057C0.109385 4.04858 0.0873427 3.94926 0.0855659 3.84856C0.0837892 3.74786 0.102314 3.64783 0.140035 3.55444C0.177756 3.46105 0.233901 3.37622 0.305119 3.305C0.376338 3.23378 0.461172 3.17763 0.55456 3.13991C0.647948 3.10219 0.747977 3.08367 0.84868 3.08544C0.949383 3.08722 1.0487 3.10926 1.1407 3.15026C1.2327 3.19125 1.3155 3.25035 1.38416 3.32404L3.47816 5.41704L6.95116 0.992036C6.95736 0.98429 6.96404 0.976942 6.97116 0.970036H6.97016Z" fill="white"/>
</svg>
