<svg width="952" height="233" viewBox="0 0 952 233" fill="none" xmlns="http://www.w3.org/2000/svg">
<path d="M283.789 151.842C278.358 151.842 273.086 151.171 267.974 149.829C262.862 148.487 258.708 146.698 255.513 144.461L261.743 130.467C264.747 132.448 268.229 134.045 272.191 135.259C276.153 136.474 280.051 137.081 283.885 137.081C291.17 137.081 294.813 135.259 294.813 131.617C294.813 129.7 293.758 128.294 291.649 127.399C289.605 126.441 286.282 125.45 281.681 124.428C276.632 123.342 272.415 122.191 269.028 120.977C265.641 119.699 262.734 117.686 260.306 114.939C257.877 112.191 256.663 108.485 256.663 103.82C256.663 99.73 257.781 96.0556 260.018 92.7966C262.255 89.4737 265.577 86.8538 269.987 84.9367C274.46 83.0197 279.923 82.0611 286.377 82.0611C290.787 82.0611 295.132 82.5723 299.413 83.5948C303.695 84.5533 307.465 85.9911 310.724 87.9081L304.877 101.998C298.487 98.5478 292.288 96.8225 286.282 96.8225C282.511 96.8225 279.764 97.3976 278.038 98.5478C276.313 99.6341 275.45 101.072 275.45 102.861C275.45 104.65 276.473 105.992 278.518 106.887C280.562 107.782 283.853 108.708 288.39 109.667C293.503 110.753 297.72 111.935 301.043 113.213C304.43 114.427 307.337 116.408 309.766 119.156C312.258 121.84 313.504 125.514 313.504 130.179C313.504 134.205 312.386 137.847 310.149 141.106C307.912 144.365 304.558 146.985 300.084 148.966C295.611 150.883 290.18 151.842 283.789 151.842ZM354.094 97.6851C358.822 97.6851 363.104 98.8034 366.938 101.04C370.836 103.213 373.903 106.344 376.14 110.434C378.44 114.459 379.591 119.156 379.591 124.524C379.591 129.892 378.44 134.62 376.14 138.71C373.903 142.736 370.836 145.867 366.938 148.104C363.104 150.276 358.822 151.363 354.094 151.363C348.023 151.363 343.198 149.541 339.62 145.899V169.095H321.408V98.5478H338.757V103.724C342.144 99.698 347.256 97.6851 354.094 97.6851ZM350.26 136.889C353.455 136.889 356.075 135.803 358.12 133.63C360.164 131.393 361.187 128.358 361.187 124.524C361.187 120.69 360.164 117.686 358.12 115.514C356.075 113.277 353.455 112.159 350.26 112.159C347.065 112.159 344.445 113.277 342.4 115.514C340.355 117.686 339.332 120.69 339.332 124.524C339.332 128.358 340.355 131.393 342.4 133.63C344.445 135.803 347.065 136.889 350.26 136.889ZM409.074 97.6851C417.701 97.6851 424.283 99.6661 428.82 103.628C433.357 107.526 435.625 113.533 435.625 121.648V150.5H418.66V143.79C416.04 148.839 410.927 151.363 403.323 151.363C399.297 151.363 395.815 150.66 392.875 149.254C389.936 147.848 387.699 145.963 386.165 143.599C384.696 141.17 383.961 138.423 383.961 135.355C383.961 130.435 385.846 126.633 389.616 123.949C393.386 121.201 399.201 119.827 407.061 119.827H417.413C417.094 114.332 413.42 111.584 406.39 111.584C403.898 111.584 401.374 111.999 398.818 112.83C396.262 113.597 394.089 114.683 392.3 116.089L386.165 103.724C389.041 101.807 392.524 100.337 396.613 99.3146C400.767 98.2283 404.921 97.6851 409.074 97.6851ZM408.403 139.86C410.512 139.86 412.365 139.349 413.963 138.327C415.56 137.304 416.711 135.803 417.413 133.822V129.317H409.554C404.25 129.317 401.598 131.074 401.598 134.588C401.598 136.186 402.205 137.464 403.419 138.423C404.633 139.381 406.295 139.86 408.403 139.86ZM474.421 151.363C468.67 151.363 463.526 150.212 458.989 147.912C454.452 145.612 450.905 142.416 448.349 138.327C445.857 134.237 444.611 129.604 444.611 124.428C444.611 119.252 445.857 114.651 448.349 110.625C450.905 106.536 454.452 103.372 458.989 101.136C463.526 98.8354 468.67 97.6851 474.421 97.6851C480.3 97.6851 485.38 98.9632 489.662 101.519C493.943 104.011 496.978 107.494 498.768 111.967L484.677 119.156C482.313 114.491 478.862 112.159 474.325 112.159C471.066 112.159 468.35 113.245 466.178 115.418C464.069 117.591 463.015 120.594 463.015 124.428C463.015 128.326 464.069 131.393 466.178 133.63C468.35 135.803 471.066 136.889 474.325 136.889C478.862 136.889 482.313 134.556 484.677 129.892L498.768 137.081C496.978 141.554 493.943 145.068 489.662 147.624C485.38 150.117 480.3 151.363 474.421 151.363ZM558.166 124.62C558.166 124.748 558.07 126.249 557.878 129.125H520.112C520.879 131.809 522.349 133.886 524.521 135.355C526.758 136.761 529.538 137.464 532.861 137.464C535.353 137.464 537.494 137.113 539.283 136.41C541.136 135.707 542.989 134.556 544.842 132.959L554.428 142.928C549.379 148.551 541.999 151.363 532.286 151.363C526.215 151.363 520.879 150.212 516.278 147.912C511.677 145.612 508.099 142.416 505.543 138.327C503.05 134.237 501.804 129.604 501.804 124.428C501.804 119.316 503.018 114.747 505.447 110.721C507.939 106.631 511.358 103.436 515.703 101.136C520.048 98.8354 524.937 97.6851 530.368 97.6851C535.545 97.6851 540.241 98.7715 544.459 100.944C548.676 103.053 551.999 106.152 554.428 110.242C556.92 114.268 558.166 119.06 558.166 124.62ZM530.464 110.625C527.653 110.625 525.288 111.424 523.371 113.022C521.518 114.619 520.336 116.792 519.825 119.54H541.104C540.593 116.792 539.379 114.619 537.462 113.022C535.608 111.424 533.276 110.625 530.464 110.625ZM600.782 151.459C594.008 151.459 587.874 149.989 582.378 147.049C576.947 144.046 572.665 139.924 569.534 134.684C566.467 129.444 564.933 123.533 564.933 116.952C564.933 110.37 566.499 104.459 569.63 99.2188C572.761 93.9788 577.042 89.8891 582.474 86.9496C587.97 83.9462 594.104 82.4445 600.878 82.4445C606.373 82.4445 611.39 83.4031 615.927 85.3201C620.464 87.2372 624.298 90.0169 627.429 93.6593L619.377 101.232C614.521 95.9917 608.546 93.3718 601.453 93.3718C596.852 93.3718 592.73 94.3942 589.088 96.439C585.446 98.42 582.602 101.2 580.557 104.778C578.512 108.357 577.49 112.415 577.49 116.952C577.49 121.489 578.512 125.546 580.557 129.125C582.602 132.703 585.446 135.515 589.088 137.56C592.73 139.541 596.852 140.531 601.453 140.531C608.546 140.531 614.521 137.879 619.377 132.576L627.429 140.244C624.298 143.886 620.432 146.666 615.831 148.583C611.294 150.5 606.278 151.459 600.782 151.459ZM659.351 151.171C654.175 151.171 649.51 150.053 645.357 147.816C641.203 145.58 637.944 142.48 635.58 138.518C633.279 134.493 632.129 129.956 632.129 124.907C632.129 119.859 633.279 115.354 635.58 111.392C637.944 107.43 641.203 104.331 645.357 102.094C649.51 99.8578 654.175 98.7395 659.351 98.7395C664.591 98.7395 669.288 99.8578 673.441 102.094C677.595 104.331 680.822 107.43 683.123 111.392C685.487 115.354 686.669 119.859 686.669 124.907C686.669 129.956 685.487 134.493 683.123 138.518C680.822 142.48 677.595 145.58 673.441 147.816C669.288 150.053 664.591 151.171 659.351 151.171ZM659.351 140.915C663.76 140.915 667.403 139.445 670.278 136.505C673.154 133.566 674.592 129.7 674.592 124.907C674.592 120.115 673.154 116.249 670.278 113.309C667.403 110.37 663.76 108.9 659.351 108.9C654.942 108.9 651.299 110.37 648.424 113.309C645.612 116.249 644.206 120.115 644.206 124.907C644.206 129.7 645.612 133.566 648.424 136.505C651.299 139.445 654.942 140.915 659.351 140.915ZM727.17 98.7395C733.624 98.7395 738.8 100.625 742.698 104.395C746.596 108.165 748.545 113.756 748.545 121.169V150.5H736.563V122.703C736.563 118.23 735.509 114.875 733.4 112.638C731.292 110.338 728.288 109.187 724.39 109.187C719.981 109.187 716.498 110.529 713.942 113.213C711.386 115.833 710.108 119.635 710.108 124.62V150.5H698.126V99.3146H709.533V105.928C711.514 103.564 714.006 101.775 717.009 100.561C720.013 99.3466 723.4 98.7395 727.17 98.7395ZM794.513 147.72C793.107 148.871 791.382 149.733 789.337 150.308C787.356 150.883 785.247 151.171 783.011 151.171C777.387 151.171 773.042 149.701 769.975 146.762C766.908 143.822 765.374 139.541 765.374 133.917V109.283H756.939V99.698H765.374V88.004H777.356V99.698H791.062V109.283H777.356V133.63C777.356 136.122 777.963 138.039 779.177 139.381C780.391 140.659 782.148 141.298 784.449 141.298C787.133 141.298 789.369 140.595 791.158 139.189L794.513 147.72ZM815.776 106.791C819.227 101.423 825.297 98.7395 833.988 98.7395V110.146C832.966 109.954 832.039 109.858 831.208 109.858C826.544 109.858 822.901 111.232 820.281 113.98C817.661 116.664 816.351 120.562 816.351 125.674V150.5H804.37V99.3146H815.776V106.791ZM866.689 151.171C861.513 151.171 856.848 150.053 852.694 147.816C848.541 145.58 845.282 142.48 842.917 138.518C840.617 134.493 839.467 129.956 839.467 124.907C839.467 119.859 840.617 115.354 842.917 111.392C845.282 107.43 848.541 104.331 852.694 102.094C856.848 99.8578 861.513 98.7395 866.689 98.7395C871.929 98.7395 876.626 99.8578 880.779 102.094C884.933 104.331 888.16 107.43 890.46 111.392C892.825 115.354 894.007 119.859 894.007 124.907C894.007 129.956 892.825 134.493 890.46 138.518C888.16 142.48 884.933 145.58 880.779 147.816C876.626 150.053 871.929 151.171 866.689 151.171ZM866.689 140.915C871.098 140.915 874.74 139.445 877.616 136.505C880.492 133.566 881.929 129.7 881.929 124.907C881.929 120.115 880.492 116.249 877.616 113.309C874.74 110.37 871.098 108.9 866.689 108.9C862.28 108.9 858.637 110.37 855.762 113.309C852.95 116.249 851.544 120.115 851.544 124.907C851.544 129.7 852.95 133.566 855.762 136.505C858.637 139.445 862.28 140.915 866.689 140.915ZM905.464 79.3772H917.446V150.5H905.464V79.3772Z" fill="white"/>
<mask id="mask0" mask-type="alpha" maskUnits="userSpaceOnUse" x="-1" y="-1" width="234" height="235">
<path d="M179 40.5L123.5 106L137 118L196.5 48L232 159L181.5 203L142 133.5L115 124L155.5 192L159 203L123.5 232.5L0 106L123.5 0L179 40.5Z" fill="#963333" stroke="black"/>
</mask>
<g mask="url(#mask0)">
<circle cx="123.851" cy="116.99" r="71.8402" transform="rotate(3.65279 123.851 116.99)" stroke="black" stroke-width="17.1048"/>
<path d="M195.545 121.567C193.018 161.162 158.87 191.212 119.274 188.684C79.6785 186.156 49.6291 152.009 52.1569 112.413C54.6846 72.8172 88.8324 42.7678 128.428 45.2955C168.024 47.8233 198.073 81.9711 195.545 121.567Z" stroke="#248181" stroke-width="17.1048"/>
<circle cx="123.641" cy="116.751" r="51.3232" transform="rotate(3.65279 123.641 116.751)" stroke="#4A9494" stroke-width="25.6397"/>
<path d="M160.443 169.218L146.592 147.619C164.923 133.978 168.915 106.188 149.362 87.9317L166.844 69.2393C200.938 100.165 189.753 149.483 160.443 169.218Z" fill="#154949"/>
</g>
</svg>
